<svg xmlns="http://www.w3.org/2000/svg" viewBox="0 0 48 48"><path fill="#1877F2" d="M48 24C48 10.745 37.255 0 24 0S0 10.745 0 24c0 11.979 8.776 21.908 20.25 23.708V30.938h-6.094V24h6.094v-5.292c0-6.011 3.578-9.332 9.064-9.332 2.625 0 5.373.469 5.373.469v5.901h-3.026c-2.981 0-3.911 1.85-3.911 3.75V24h6.656l-1.063 6.938H27.75v16.77C39.224 45.908 48 35.979 48 24z"/><path fill="#fff" d="M33.343 30.938L34.406 24H27.75v-4.504c0-1.9.93-3.75 3.911-3.75h3.026v-5.9s-2.748-.469-5.373-.469c-5.486 0-9.064 3.32-9.064 9.332V24h-6.094v6.938h6.094v16.77a24.16 24.16 0 007.5 0V30.938h5.593z"/></svg>
