<svg xmlns="http://www.w3.org/2000/svg" viewBox="0 0 48 48"><path fill="#4CAF50" d="M45 16.2l-5 2.75-5 4.75L35 40h7a3 3 0 003-3V16.2z"/><path fill="#1E88E5" d="M3 16.2l3.5 7.75L13 23.7V18.2H3z"/><path fill="#E53935" d="M35 11.2H13L3 16.2l10 7.5h22l10-7.5-10-5z"/><path fill="#C62828" d="M3 16.2v21.6a3 3 0 003 3h7l.16-9.04L13 23.7 3 16.2z"/><path fill="#FBC02D" d="M45 37.8V16.2l-10 7.5-.84 8.46L35 40h7a3 3 0 003-3z"/><path fill="#1565C0" d="M13 40h22l1-16.3H12L13 40z"/><path fill="#fff" d="M24 18.2a6 6 0 100 12 6 6 0 000-12zm0 10a4 4 0 110-8 4 4 0 010 8z"/></svg>
