<svg xmlns="http://www.w3.org/2000/svg" viewBox="0 0 48 48"><linearGradient id="a" x1="6.228" x2="42.077" y1="6.228" y2="42.077" gradientUnits="userSpaceOnUse"><stop offset="0" stop-color="#f44336"/><stop offset=".5" stop-color="#b01eff"/><stop offset="1" stop-color="#448aff"/></linearGradient><path fill="url(#a)" d="M34 6H14C9.582 6 6 9.582 6 14v20c0 4.418 3.582 8 8 8h20c4.418 0 8-3.582 8-8V14c0-4.418-3.582-8-8-8zm-10 28c-5.523 0-10-4.477-10-10s4.477-10 10-10 10 4.477 10 10-4.477 10-10 10zm10-18c-1.105 0-2-.895-2-2s.895-2 2-2 2 .895 2 2-.895 2-2 2z"/><circle fill="url(#a)" cx="24" cy="24" r="6"/></svg>
